<?xml version="1.0" standalone="no"?>
<!DOCTYPE svg PUBLIC "-//W3C//DTD SVG 20010904//EN"
 "http://www.w3.org/TR/2001/REC-SVG-20010904/DTD/svg10.dtd">
<svg version="1.0" xmlns="http://www.w3.org/2000/svg"
 width="700.000000pt" height="700.000000pt" viewBox="0 0 700.000000 700.000000"
 preserveAspectRatio="xMidYMid meet">
<metadata>
Created by potrace 1.14, written by Peter Selinger 2001-2017
</metadata>
<g transform="translate(0.000000,700.000000) scale(0.100000,-0.100000)"
fill="#000000" stroke="none">
<path d="M4610 6985 c-77 -17 -191 -68 -248 -110 -78 -59 -1532 -1513 -1614
-1615 -85 -105 -128 -251 -123 -418 4 -112 7 -130 40 -217 33 -89 83 -163 170
-253 l74 -77 230 230 c127 127 233 236 236 244 3 9 -11 31 -35 56 l-40 41 725
724 c399 399 727 724 730 723 3 -1 356 -352 785 -781 l779 -779 -726 -726
-726 -726 -41 39 c-22 22 -45 40 -50 40 -4 0 -115 -106 -244 -235 l-237 -235
55 -56 c99 -100 239 -192 320 -208 14 -2 47 -9 74 -14 131 -26 294 -3 423 59
97 46 122 70 960 909 804 804 769 766 826 910 36 91 46 160 42 270 -7 179 -61
303 -193 442 -113 120 -1424 1432 -1564 1565 -88 83 -123 109 -190 141 -46 22
-105 45 -133 52 -69 17 -239 20 -305 5z"/>
<path d="M4060 5022 c-37 -17 -1926 -1901 -2038 -2031 -58 -67 -63 -77 -61
-115 1 -22 7 -50 12 -61 12 -24 142 -158 502 -516 288 -286 332 -328 349 -330
48 -7 83 -6 103 2 33 12 98 76 1037 1015 997 997 1063 1065 1072 1099 12 48
-3 95 -49 148 -86 99 -766 772 -799 789 -41 22 -83 22 -128 0z"/>
<path d="M2025 4375 c-125 -35 -197 -63 -242 -92 -31 -20 -129 -107 -217 -193
-230 -226 -1314 -1312 -1390 -1393 -67 -72 -124 -172 -151 -267 -20 -66 -27
-216 -15 -285 18 -98 22 -111 62 -194 31 -64 60 -104 122 -169 146 -154 1519
-1526 1601 -1601 84 -77 194 -138 290 -161 131 -32 300 -17 427 36 125 52 102
31 821 750 971 971 952 949 1012 1114 21 60 28 97 30 180 8 218 -50 361 -212
530 l-72 75 -226 -225 c-124 -124 -230 -233 -236 -244 -9 -15 -4 -25 30 -60
l41 -42 -726 -726 -727 -727 -779 779 c-428 429 -779 783 -778 787 0 4 325
333 722 730 l722 723 41 -40 c22 -22 45 -40 50 -40 6 1 116 106 245 235 l235
234 -50 51 c-63 65 -148 132 -211 165 -95 51 -161 66 -289 70 -66 1 -124 1
-130 0z"/>
</g>
</svg>
